<mxfile host="app.diagrams.net" modified="2021-06-27T00:53:50.449Z" agent="5.0 (Windows NT 10.0; Win64; x64) AppleWebKit/537.36 (KHTML, like Gecko) Chrome/91.0.4472.114 Safari/537.36" etag="nyh2CEeqGGavXrC3B4PW" version="14.8.0" type="github">
  <diagram id="Vh3gzTRx76sYJ0MUS5VW" name="Page-1">
    <mxGraphModel dx="1250" dy="581" grid="0" gridSize="10" guides="1" tooltips="1" connect="1" arrows="1" fold="1" page="1" pageScale="1" pageWidth="827" pageHeight="1169" math="0" shadow="1">
      <root>
        <mxCell id="0" />
        <mxCell id="1" parent="0" />
        <mxCell id="2I-l5TKikd3HnTWQH8Fd-33" style="edgeStyle=orthogonalEdgeStyle;curved=1;rounded=0;orthogonalLoop=1;jettySize=auto;html=1;exitX=0.5;exitY=1;exitDx=0;exitDy=0;entryX=0.12;entryY=0.01;entryDx=0;entryDy=0;entryPerimeter=0;" edge="1" parent="1" source="6DVgpbjEEhV9NSC0daGQ-1" target="6DVgpbjEEhV9NSC0daGQ-11">
          <mxGeometry relative="1" as="geometry">
            <Array as="points">
              <mxPoint x="226" y="226" />
              <mxPoint x="226" y="345" />
              <mxPoint x="348" y="345" />
            </Array>
          </mxGeometry>
        </mxCell>
        <mxCell id="6DVgpbjEEhV9NSC0daGQ-1" value="header.jsx" style="whiteSpace=wrap;html=1;fillColor=#f8cecc;strokeColor=#b85450;sketch=1;rounded=1;" parent="1" vertex="1">
          <mxGeometry x="139" y="166" width="120" height="60" as="geometry" />
        </mxCell>
        <mxCell id="2I-l5TKikd3HnTWQH8Fd-30" style="edgeStyle=orthogonalEdgeStyle;curved=1;rounded=0;orthogonalLoop=1;jettySize=auto;html=1;entryX=0.5;entryY=0;entryDx=0;entryDy=0;" edge="1" parent="1" source="6DVgpbjEEhV9NSC0daGQ-2" target="2I-l5TKikd3HnTWQH8Fd-6">
          <mxGeometry relative="1" as="geometry" />
        </mxCell>
        <mxCell id="6DVgpbjEEhV9NSC0daGQ-2" value="form.jsx" style="whiteSpace=wrap;html=1;fillColor=#f8cecc;strokeColor=#b85450;sketch=1;rounded=1;" parent="1" vertex="1">
          <mxGeometry x="409" y="166" width="120" height="60" as="geometry" />
        </mxCell>
        <mxCell id="6DVgpbjEEhV9NSC0daGQ-22" style="edgeStyle=orthogonalEdgeStyle;orthogonalLoop=1;jettySize=auto;html=1;exitX=0.5;exitY=1;exitDx=0;exitDy=0;entryX=1;entryY=0.75;entryDx=0;entryDy=0;curved=1;sketch=1;" parent="1" source="6DVgpbjEEhV9NSC0daGQ-3" target="6DVgpbjEEhV9NSC0daGQ-11" edge="1">
          <mxGeometry relative="1" as="geometry" />
        </mxCell>
        <mxCell id="6DVgpbjEEhV9NSC0daGQ-3" value="footer.jsx" style="whiteSpace=wrap;html=1;fillColor=#f8cecc;strokeColor=#b85450;sketch=1;rounded=1;" parent="1" vertex="1">
          <mxGeometry x="702" y="166" width="120" height="60" as="geometry" />
        </mxCell>
        <mxCell id="6DVgpbjEEhV9NSC0daGQ-9" style="edgeStyle=orthogonalEdgeStyle;orthogonalLoop=1;jettySize=auto;html=1;exitX=0.5;exitY=1;exitDx=0;exitDy=0;entryX=0.5;entryY=0;entryDx=0;entryDy=0;curved=1;sketch=1;" parent="1" source="6DVgpbjEEhV9NSC0daGQ-4" target="6DVgpbjEEhV9NSC0daGQ-3" edge="1">
          <mxGeometry relative="1" as="geometry">
            <mxPoint x="762" y="156" as="targetPoint" />
          </mxGeometry>
        </mxCell>
        <mxCell id="6DVgpbjEEhV9NSC0daGQ-4" value="footer.scss" style="whiteSpace=wrap;html=1;fillColor=#e1d5e7;strokeColor=#9673a6;sketch=1;rounded=1;" parent="1" vertex="1">
          <mxGeometry x="702" y="106" width="120" height="30" as="geometry" />
        </mxCell>
        <mxCell id="6DVgpbjEEhV9NSC0daGQ-8" style="edgeStyle=orthogonalEdgeStyle;orthogonalLoop=1;jettySize=auto;html=1;exitX=0.5;exitY=1;exitDx=0;exitDy=0;entryX=0.5;entryY=0;entryDx=0;entryDy=0;entryPerimeter=0;curved=1;sketch=1;" parent="1" source="6DVgpbjEEhV9NSC0daGQ-5" target="6DVgpbjEEhV9NSC0daGQ-2" edge="1">
          <mxGeometry relative="1" as="geometry">
            <mxPoint x="469" y="156" as="targetPoint" />
          </mxGeometry>
        </mxCell>
        <mxCell id="6DVgpbjEEhV9NSC0daGQ-5" value="form.scss" style="whiteSpace=wrap;html=1;fillColor=#e1d5e7;strokeColor=#9673a6;sketch=1;rounded=1;" parent="1" vertex="1">
          <mxGeometry x="409" y="106" width="120" height="30" as="geometry" />
        </mxCell>
        <mxCell id="2I-l5TKikd3HnTWQH8Fd-32" style="edgeStyle=orthogonalEdgeStyle;curved=1;rounded=0;orthogonalLoop=1;jettySize=auto;html=1;exitX=0.5;exitY=1;exitDx=0;exitDy=0;entryX=0.5;entryY=0;entryDx=0;entryDy=0;" edge="1" parent="1" source="6DVgpbjEEhV9NSC0daGQ-6" target="6DVgpbjEEhV9NSC0daGQ-1">
          <mxGeometry relative="1" as="geometry" />
        </mxCell>
        <mxCell id="6DVgpbjEEhV9NSC0daGQ-6" value="header.scss" style="whiteSpace=wrap;html=1;fillColor=#e1d5e7;strokeColor=#9673a6;sketch=1;rounded=1;" parent="1" vertex="1">
          <mxGeometry x="139" y="106" width="120" height="30" as="geometry" />
        </mxCell>
        <mxCell id="6DVgpbjEEhV9NSC0daGQ-20" style="edgeStyle=orthogonalEdgeStyle;orthogonalLoop=1;jettySize=auto;html=1;exitX=0.5;exitY=1;exitDx=0;exitDy=0;entryX=0.5;entryY=0;entryDx=0;entryDy=0;curved=1;sketch=1;" parent="1" source="6DVgpbjEEhV9NSC0daGQ-11" target="6DVgpbjEEhV9NSC0daGQ-16" edge="1">
          <mxGeometry relative="1" as="geometry" />
        </mxCell>
        <mxCell id="6DVgpbjEEhV9NSC0daGQ-11" value="App.js" style="whiteSpace=wrap;html=1;fillColor=#ffe6cc;strokeColor=#d79b00;sketch=1;rounded=1;" parent="1" vertex="1">
          <mxGeometry x="332" y="400" width="130" height="60" as="geometry" />
        </mxCell>
        <mxCell id="6DVgpbjEEhV9NSC0daGQ-21" style="edgeStyle=orthogonalEdgeStyle;orthogonalLoop=1;jettySize=auto;html=1;exitX=0.5;exitY=1;exitDx=0;exitDy=0;entryX=0.5;entryY=0;entryDx=0;entryDy=0;curved=1;sketch=1;" parent="1" source="6DVgpbjEEhV9NSC0daGQ-16" target="6DVgpbjEEhV9NSC0daGQ-18" edge="1">
          <mxGeometry relative="1" as="geometry" />
        </mxCell>
        <mxCell id="6DVgpbjEEhV9NSC0daGQ-16" value="index.js" style="whiteSpace=wrap;html=1;fillColor=#fff2cc;strokeColor=#d6b656;sketch=1;rounded=1;" parent="1" vertex="1">
          <mxGeometry x="332" y="490" width="130" height="60" as="geometry" />
        </mxCell>
        <mxCell id="6DVgpbjEEhV9NSC0daGQ-18" value="index.html" style="whiteSpace=wrap;html=1;fillColor=#f5f5f5;strokeColor=#666666;fontColor=#333333;sketch=1;rounded=1;" parent="1" vertex="1">
          <mxGeometry x="332" y="580" width="130" height="60" as="geometry" />
        </mxCell>
        <mxCell id="6DVgpbjEEhV9NSC0daGQ-24" value="&lt;font style=&quot;font-size: 24px&quot;&gt;Resty UML&lt;/font&gt;" style="text;html=1;align=center;verticalAlign=middle;resizable=0;points=[];autosize=1;strokeWidth=2;fillColor=#f5f5f5;fontColor=#333333;gradientColor=#ffffff;strokeColor=#D4E1F5;rounded=1;glass=1;shadow=1;sketch=1;arcSize=0;" parent="1" vertex="1">
          <mxGeometry x="324" y="35" width="128" height="22" as="geometry" />
        </mxCell>
        <mxCell id="2I-l5TKikd3HnTWQH8Fd-3" style="edgeStyle=orthogonalEdgeStyle;rounded=0;orthogonalLoop=1;jettySize=auto;html=1;exitX=0.5;exitY=1;exitDx=0;exitDy=0;entryX=0.5;entryY=0;entryDx=0;entryDy=0;" edge="1" parent="1" source="2I-l5TKikd3HnTWQH8Fd-1" target="2I-l5TKikd3HnTWQH8Fd-2">
          <mxGeometry relative="1" as="geometry" />
        </mxCell>
        <mxCell id="2I-l5TKikd3HnTWQH8Fd-1" value="results.scss" style="whiteSpace=wrap;html=1;fillColor=#e1d5e7;strokeColor=#9673a6;sketch=1;rounded=1;" vertex="1" parent="1">
          <mxGeometry x="272" y="106" width="120" height="30" as="geometry" />
        </mxCell>
        <mxCell id="2I-l5TKikd3HnTWQH8Fd-21" style="edgeStyle=orthogonalEdgeStyle;curved=1;rounded=0;orthogonalLoop=1;jettySize=auto;html=1;entryX=0;entryY=0.5;entryDx=0;entryDy=0;" edge="1" parent="1" source="2I-l5TKikd3HnTWQH8Fd-2" target="2I-l5TKikd3HnTWQH8Fd-6">
          <mxGeometry relative="1" as="geometry" />
        </mxCell>
        <mxCell id="2I-l5TKikd3HnTWQH8Fd-2" value="results.jsx" style="whiteSpace=wrap;html=1;fillColor=#f8cecc;strokeColor=#b85450;sketch=1;rounded=1;" vertex="1" parent="1">
          <mxGeometry x="274" y="166" width="120" height="64" as="geometry" />
        </mxCell>
        <mxCell id="2I-l5TKikd3HnTWQH8Fd-23" style="edgeStyle=orthogonalEdgeStyle;curved=1;rounded=0;orthogonalLoop=1;jettySize=auto;html=1;exitX=0.5;exitY=1;exitDx=0;exitDy=0;entryX=0.5;entryY=0;entryDx=0;entryDy=0;" edge="1" parent="1" source="2I-l5TKikd3HnTWQH8Fd-4" target="2I-l5TKikd3HnTWQH8Fd-5">
          <mxGeometry relative="1" as="geometry" />
        </mxCell>
        <mxCell id="2I-l5TKikd3HnTWQH8Fd-4" value="history.scss" style="whiteSpace=wrap;html=1;fillColor=#e1d5e7;strokeColor=#9673a6;sketch=1;rounded=1;" vertex="1" parent="1">
          <mxGeometry x="544" y="106" width="120" height="30" as="geometry" />
        </mxCell>
        <mxCell id="2I-l5TKikd3HnTWQH8Fd-19" style="edgeStyle=orthogonalEdgeStyle;curved=1;rounded=0;orthogonalLoop=1;jettySize=auto;html=1;exitX=0.5;exitY=1;exitDx=0;exitDy=0;entryX=0.5;entryY=0;entryDx=0;entryDy=0;" edge="1" parent="1" source="2I-l5TKikd3HnTWQH8Fd-5" target="2I-l5TKikd3HnTWQH8Fd-17">
          <mxGeometry relative="1" as="geometry" />
        </mxCell>
        <mxCell id="2I-l5TKikd3HnTWQH8Fd-20" style="edgeStyle=orthogonalEdgeStyle;curved=1;rounded=0;orthogonalLoop=1;jettySize=auto;html=1;entryX=1;entryY=0.5;entryDx=0;entryDy=0;" edge="1" parent="1" source="2I-l5TKikd3HnTWQH8Fd-5" target="2I-l5TKikd3HnTWQH8Fd-6">
          <mxGeometry relative="1" as="geometry">
            <Array as="points">
              <mxPoint x="546" y="244" />
              <mxPoint x="520" y="244" />
              <mxPoint x="520" y="274" />
              <mxPoint x="477" y="274" />
              <mxPoint x="477" y="336" />
            </Array>
          </mxGeometry>
        </mxCell>
        <mxCell id="2I-l5TKikd3HnTWQH8Fd-5" value="history.jsx" style="whiteSpace=wrap;html=1;fillColor=#f8cecc;strokeColor=#b85450;sketch=1;rounded=1;" vertex="1" parent="1">
          <mxGeometry x="544" y="166" width="120" height="60" as="geometry" />
        </mxCell>
        <mxCell id="2I-l5TKikd3HnTWQH8Fd-13" style="edgeStyle=orthogonalEdgeStyle;curved=1;rounded=0;orthogonalLoop=1;jettySize=auto;html=1;exitX=0.5;exitY=1;exitDx=0;exitDy=0;entryX=0.5;entryY=0;entryDx=0;entryDy=0;" edge="1" parent="1" source="2I-l5TKikd3HnTWQH8Fd-6" target="6DVgpbjEEhV9NSC0daGQ-11">
          <mxGeometry relative="1" as="geometry" />
        </mxCell>
        <mxCell id="2I-l5TKikd3HnTWQH8Fd-6" value="home page" style="whiteSpace=wrap;html=1;fillColor=#f8cecc;strokeColor=#b85450;sketch=1;rounded=1;" vertex="1" parent="1">
          <mxGeometry x="337" y="306" width="120" height="60" as="geometry" />
        </mxCell>
        <mxCell id="2I-l5TKikd3HnTWQH8Fd-31" style="edgeStyle=orthogonalEdgeStyle;curved=1;rounded=0;orthogonalLoop=1;jettySize=auto;html=1;exitX=0.5;exitY=1;exitDx=0;exitDy=0;entryX=1;entryY=0.25;entryDx=0;entryDy=0;" edge="1" parent="1" source="2I-l5TKikd3HnTWQH8Fd-17" target="6DVgpbjEEhV9NSC0daGQ-11">
          <mxGeometry relative="1" as="geometry" />
        </mxCell>
        <mxCell id="2I-l5TKikd3HnTWQH8Fd-17" value="history page" style="whiteSpace=wrap;html=1;fillColor=#f8cecc;strokeColor=#b85450;sketch=1;rounded=1;" vertex="1" parent="1">
          <mxGeometry x="503" y="306" width="120" height="60" as="geometry" />
        </mxCell>
        <mxCell id="2I-l5TKikd3HnTWQH8Fd-22" style="edgeStyle=orthogonalEdgeStyle;curved=1;rounded=0;orthogonalLoop=1;jettySize=auto;html=1;exitX=0.5;exitY=1;exitDx=0;exitDy=0;entryX=0;entryY=0.75;entryDx=0;entryDy=0;" edge="1" parent="1" source="2I-l5TKikd3HnTWQH8Fd-18" target="6DVgpbjEEhV9NSC0daGQ-11">
          <mxGeometry relative="1" as="geometry" />
        </mxCell>
        <mxCell id="2I-l5TKikd3HnTWQH8Fd-18" value="help page" style="whiteSpace=wrap;html=1;fillColor=#f8cecc;strokeColor=#b85450;sketch=1;rounded=1;" vertex="1" parent="1">
          <mxGeometry x="105" y="308" width="120" height="60" as="geometry" />
        </mxCell>
        <mxCell id="2I-l5TKikd3HnTWQH8Fd-28" style="edgeStyle=orthogonalEdgeStyle;curved=1;rounded=0;orthogonalLoop=1;jettySize=auto;html=1;exitX=0.5;exitY=1;exitDx=0;exitDy=0;entryX=0;entryY=0.75;entryDx=0;entryDy=0;" edge="1" parent="1" source="2I-l5TKikd3HnTWQH8Fd-25" target="2I-l5TKikd3HnTWQH8Fd-18">
          <mxGeometry relative="1" as="geometry" />
        </mxCell>
        <mxCell id="2I-l5TKikd3HnTWQH8Fd-25" value="help.jsx" style="whiteSpace=wrap;html=1;fillColor=#f8cecc;strokeColor=#b85450;sketch=1;rounded=1;" vertex="1" parent="1">
          <mxGeometry x="8" y="166" width="120" height="60" as="geometry" />
        </mxCell>
        <mxCell id="2I-l5TKikd3HnTWQH8Fd-29" style="edgeStyle=orthogonalEdgeStyle;curved=1;rounded=0;orthogonalLoop=1;jettySize=auto;html=1;exitX=0.5;exitY=1;exitDx=0;exitDy=0;entryX=0.5;entryY=0;entryDx=0;entryDy=0;" edge="1" parent="1" source="2I-l5TKikd3HnTWQH8Fd-27" target="2I-l5TKikd3HnTWQH8Fd-25">
          <mxGeometry relative="1" as="geometry" />
        </mxCell>
        <mxCell id="2I-l5TKikd3HnTWQH8Fd-27" value="help.scss" style="whiteSpace=wrap;html=1;fillColor=#e1d5e7;strokeColor=#9673a6;sketch=1;rounded=1;" vertex="1" parent="1">
          <mxGeometry x="5" y="106" width="120" height="30" as="geometry" />
        </mxCell>
      </root>
    </mxGraphModel>
  </diagram>
</mxfile>
